<svg width="64" height="64" viewBox="0 0 64 64" fill="none" xmlns="http://www.w3.org/2000/svg">
<rect width="64" height="64" rx="10" fill="white"/>
<rect width="64" height="64" rx="10" fill="#100F0F"/>
<path d="M11.8864 25.5216V28.152H8.3152V39H5.032V28.152H1.4608V25.5216H11.8864ZM16.8174 30.072C17.2014 29.4832 17.6814 29.0224 18.2574 28.6896C18.8334 28.344 19.4734 28.1712 20.1774 28.1712V31.6464H19.275C18.4558 31.6464 17.8414 31.8256 17.4318 32.184C17.0222 32.5296 16.8174 33.144 16.8174 34.0272V39H13.5342V28.2864H16.8174V30.072ZM21.0939 33.624C21.0939 32.5232 21.2987 31.5568 21.7083 30.7248C22.1307 29.8928 22.7003 29.2528 23.4171 28.8048C24.1339 28.3568 24.9339 28.1328 25.8171 28.1328C26.5723 28.1328 27.2315 28.2864 27.7947 28.5936C28.3707 28.9008 28.8123 29.304 29.1195 29.8032V28.2864H32.4027V39H29.1195V37.4832C28.7995 37.9824 28.3515 38.3856 27.7755 38.6928C27.2123 39 26.5531 39.1536 25.7979 39.1536C24.9275 39.1536 24.1339 38.9296 23.4171 38.4816C22.7003 38.0208 22.1307 37.3744 21.7083 36.5424C21.2987 35.6976 21.0939 34.7248 21.0939 33.624ZM29.1195 33.6432C29.1195 32.824 28.8891 32.1776 28.4283 31.704C27.9803 31.2304 27.4299 30.9936 26.7771 30.9936C26.1243 30.9936 25.5675 31.2304 25.1067 31.704C24.6587 32.1648 24.4347 32.8048 24.4347 33.624C24.4347 34.4432 24.6587 35.096 25.1067 35.5824C25.5675 36.056 26.1243 36.2928 26.7771 36.2928C27.4299 36.2928 27.9803 36.056 28.4283 35.5824C28.8891 35.1088 29.1195 34.4624 29.1195 33.6432ZM39.5971 35.928L41.9203 28.2864H45.4147L41.6131 39H37.5619L33.7603 28.2864H37.2739L39.5971 35.928ZM56.8959 33.4704C56.8959 33.7776 56.8767 34.0976 56.8383 34.4304H49.4079C49.4591 35.096 49.6703 35.608 50.0415 35.9664C50.4255 36.312 50.8927 36.4848 51.4431 36.4848C52.2623 36.4848 52.8319 36.1392 53.1519 35.448H56.6463C56.4671 36.152 56.1407 36.7856 55.6671 37.3488C55.2063 37.912 54.6239 38.3536 53.9199 38.6736C53.2159 38.9936 52.4287 39.1536 51.5583 39.1536C50.5087 39.1536 49.5743 38.9296 48.7551 38.4816C47.9359 38.0336 47.2959 37.3936 46.8351 36.5616C46.3743 35.7296 46.1439 34.7568 46.1439 33.6432C46.1439 32.5296 46.3679 31.5568 46.8159 30.7248C47.2767 29.8928 47.9167 29.2528 48.7359 28.8048C49.5551 28.3568 50.4959 28.1328 51.5583 28.1328C52.5951 28.1328 53.5167 28.3504 54.3231 28.7856C55.1295 29.2208 55.7567 29.8416 56.2047 30.648C56.6655 31.4544 56.8959 32.3952 56.8959 33.4704ZM53.5359 32.6064C53.5359 32.0432 53.3439 31.5952 52.9599 31.2624C52.5759 30.9296 52.0959 30.7632 51.5199 30.7632C50.9695 30.7632 50.5023 30.9232 50.1183 31.2432C49.7471 31.5632 49.5167 32.0176 49.4271 32.6064H53.5359ZM61.9111 24.792V39H58.6279V24.792H61.9111Z" fill="white"/>
</svg>
